<?xml version="1.0" encoding="utf-8"?>
<!-- Generator: Adobe Illustrator 26.0.2, SVG Export Plug-In . SVG Version: 6.00 Build 0)  -->
<svg version="1.1" id="Layer_1" xmlns="http://www.w3.org/2000/svg" xmlns:xlink="http://www.w3.org/1999/xlink" x="0px" y="0px"
	 viewBox="0 0 1920 1000" style="enable-background:new 0 0 1920 1000;" xml:space="preserve">
<style type="text/css">
	.st0{fill:#229CD8;}
	.st1{fill:#F0841F;}
	.st2{fill:#43AA34;}
	.st3{fill:#832481;}
	.st4{fill:#E41F23;}
</style>
<g>
	<path class="st0" d="M65.92,321.94h214.15v69.82H142.3v87.63h129.33v65.6H142.3v126.52H65.92V321.94z"/>
	<path class="st0" d="M339.58,411.91h59.51l7.5,38.89h0.94c17.34-31.4,47.33-41.7,70.29-41.7c7.96,0,14.06,0.47,19.68,1.87v70.29
		c-7.03-1.88-14.53-2.34-21.56-2.34c-31.4,0-61.39,16.87-61.39,65.6v126.99h-74.97V411.91z"/>
	<path class="st0" d="M525.61,542.64c0-82.94,56.7-137.3,115.27-137.3c38.89,0,68.41,19.68,85.28,46.39l7.5-39.83h63.26v259.6
		h-63.26l-7.5-39.83c-16.87,27.18-46.39,46.39-85.28,46.39C582.31,678.06,525.61,623.71,525.61,542.64z M723.36,541.71
		c0-40.3-25.77-68.88-60.45-68.88c-35.61,0-61.85,29.52-61.85,68.88c0,39.83,26.24,68.88,61.85,68.88
		C697.59,610.59,723.36,582,723.36,541.71z"/>
	<path class="st0" d="M1229.46,411.91h69.35v61.85h-69.35v93.25c0,32.8,21.56,45.45,50.61,45.45c7.03,0,15-0.94,23.43-2.34v62.79
		c-10.78,2.34-22.49,4.22-40.77,4.22c-68.88,0-105.9-40.77-105.9-105.43v-97.94h-36.55v-61.85h37.02v-59.98h72.16V411.91z"/>
	<path class="st0" d="M1353.63,566.07V411.91h74.97v154.17c0,29.05,15.46,44.52,42.64,44.52c27.65,0,44.05-15.46,44.05-44.98
		l-0.76-160.26h74.97l0.76,160.73c0,65.6-44.98,111.99-119.02,111.99C1397.68,678.06,1353.63,631.68,1353.63,566.07z"/>
	<path class="st0" d="M1837.21,425.49v63.73c-18.28-12.65-49.67-22.96-79.19-22.96c-23.43,0-36.55,7.97-36.55,20.62
		c0,14.06,14.99,19.68,44.52,27.65c42.64,10.31,88.1,24.83,88.1,79.66c0,51.07-40.3,83.88-110.59,83.88
		c-37.49,0-69.82-9.37-92.78-24.37v-68.88c22.03,17.81,51.55,32.33,89.5,32.33c26.24,0,41.24-8.43,41.24-22.49
		c0-15.93-18.74-21.09-52.48-30.46c-41.24-11.72-79.66-28.58-79.66-75.91c0-47.8,38.9-82.94,105.9-82.94
		C1785.66,405.34,1817.06,412.84,1837.21,425.49z"/>
	<g>
		<path class="st0" d="M1073.66,445.4l-52.45,52.45c-1.26-1.26-2.56-2.46-3.9-3.59c-9.19-7.77-20.28-12.62-32.17-14.08V405.7
			c31.67,1.81,61.35,14.4,84.7,36.04C1071.15,442.91,1072.4,444.15,1073.66,445.4z"/>
	</g>
	<g>
		<path class="st0" d="M1073.19,638.59c-1.1,1.1-2.22,2.15-3.35,3.19c-23.32,21.65-53.03,34.24-84.7,36.02v-74.44
			c11.88-1.49,22.98-6.33,32.17-14.11c1.28-1.07,2.51-2.2,3.69-3.38L1073.19,638.59z"/>
	</g>
	<g>
		<g>
			<path class="st1" d="M972.42,603.65v74.28c-32.12-1.1-62.29-13.27-86.11-34.73l52.61-52.61
				C948.55,598.18,960.12,602.71,972.42,603.65z"/>
		</g>
	</g>
	<g>
		<path class="st2" d="M929.81,581.74l-52.56,52.56c-21.99-23.71-34.63-53.94-36.09-86.19h74.41
			C916.8,560.54,921.72,572.19,929.81,581.74z"/>
	</g>
	<g>
		<path class="st3" d="M929.81,501.78c-8.09,9.55-13.01,21.2-14.24,33.63h-74.41c1.49-32.25,14.13-62.5,36.09-86.19L929.81,501.78z"
			/>
	</g>
	<path class="st4" d="M938.95,492.95c9.63-7.6,21.19-12.12,33.48-13.07V405.6c-32.11,1.12-62.28,13.29-86.11,34.72L938.95,492.95z"
		/>
</g>
</svg>
